<svg width="181" height="87" viewBox="0 0 181 87" fill="none" xmlns="http://www.w3.org/2000/svg">
<path d="M0 0L181 0L133.595 86.1905H0L0 0Z" fill="#17313A"/>
<path d="M29.599 75.3072C37.1363 75.3072 43.3033 71.6527 46.8055 66.171L37.6693 60.004C36.1466 62.821 33.558 64.8005 29.5228 64.8005C26.0968 64.8005 21.7571 62.821 21.2241 57.72H47.9475C48.0998 56.578 48.1759 55.4359 48.1759 54.3701C48.1759 42.3407 39.4965 36.0215 29.8274 36.0215C18.1026 36.0215 10.1846 44.4725 10.1846 55.6643C10.1846 67.3891 19.5492 75.3072 29.599 75.3072ZM29.1422 45.2339C32.8728 45.2339 36.2227 46.985 36.8318 51.0201H21.3003C22.3662 46.452 26.4013 45.2339 29.1422 45.2339Z" fill="#FFED00"/>
<path d="M47.0154 74.6981H82.7227V64.7244H66.2776L83.8647 36.6306H49.2995V46.5282H64.6787L47.0154 74.6981Z" fill="#FFED00"/>
<path d="M86.2779 31.225H96.9367C97.9265 30.083 98.4594 28.5603 98.4594 26.8853C98.4594 23.0786 95.414 20.0332 91.6073 20.0332C87.8006 20.0332 84.7552 23.0786 84.7552 26.8853C84.7552 28.5603 85.2881 30.083 86.2779 31.225ZM85.821 74.6981H97.3174V36.6306H85.821V74.6981Z" fill="#FFED00"/>
</svg>
