<svg width="40" height="40" viewBox="0 0 40 40" fill="none" xmlns="http://www.w3.org/2000/svg">
<g clip-path="url(#clip0_3384_31128)">
<path d="M26.0181 22.7832H10.1338C9.65918 22.7832 9.27441 22.3984 9.27441 21.9238C9.27441 21.4492 9.65918 21.0645 10.1338 21.0645H26.0181C26.4927 21.0645 26.8775 21.4492 26.8775 21.9238C26.8775 22.3984 26.4928 22.7832 26.0181 22.7832Z" fill="#FFED00"/>
<path d="M18.076 18.8122C16.2884 18.8122 14.834 17.3578 14.834 15.5702C14.834 13.7825 16.2884 12.3281 18.076 12.3281C19.8637 12.3281 21.318 13.7825 21.318 15.5702C21.318 17.3578 19.8637 18.8122 18.076 18.8122ZM18.076 14.0469C17.2361 14.0469 16.5527 14.7302 16.5527 15.5702C16.5527 16.4101 17.2361 17.0934 18.076 17.0934C18.916 17.0934 19.5993 16.4101 19.5993 15.5702C19.5993 14.7303 18.9159 14.0469 18.076 14.0469Z" fill="#FFED00"/>
<path d="M18.076 31.5192C16.2884 31.5192 14.834 30.0648 14.834 28.2772C14.834 26.4895 16.2884 25.0352 18.076 25.0352C19.8637 25.0352 21.318 26.4895 21.318 28.2772C21.318 30.0648 19.8637 31.5192 18.076 31.5192ZM18.076 26.7539C17.2361 26.7539 16.5527 27.4373 16.5527 28.2772C16.5527 29.1171 17.2361 29.8005 18.076 29.8005C18.916 29.8005 19.5993 29.1171 19.5993 28.2772C19.5993 27.4373 18.9159 26.7539 18.076 26.7539Z" fill="#FFED00"/>
<path d="M39.7482 0.251747C39.4125 -0.0839549 38.8684 -0.0838768 38.5328 0.251747L34.2268 4.55775L20.0195 3.46487C19.7693 3.44596 19.5233 3.53666 19.3459 3.71401L0.25166 22.8083C-0.0838865 23.1439 -0.0838865 23.688 0.25166 24.0236L15.9763 39.7483C16.1375 39.9094 16.3561 40 16.584 40C16.8119 40 17.0305 39.9095 17.1916 39.7483L36.2859 20.6541C36.4633 20.4767 36.5543 20.2307 36.5351 19.9805L35.4422 5.77314L39.7482 1.46714C40.0838 1.13151 40.0838 0.587372 39.7482 0.251747ZM34.791 19.7182L16.584 37.9253L2.07462 23.4159L20.2818 5.20892L32.6261 6.15853L29.5007 9.28399L28.7043 8.48767C28.3687 8.15212 27.8246 8.15212 27.4889 8.48767C27.1533 8.82329 27.1533 9.36743 27.4889 9.70305L30.2969 12.511C30.4647 12.6788 30.6846 12.7627 30.9046 12.7627C31.1245 12.7627 31.3444 12.6788 31.5122 12.511C31.8478 12.1754 31.8478 11.6313 31.5122 11.2956L30.7159 10.4993L33.8414 7.37384L34.791 19.7182Z" fill="#FFED00"/>
</g>
<defs>
<clipPath id="clip0_3384_31128">
<rect width="40" height="40" fill="white"/>
</clipPath>
</defs>
</svg>
